<svg xmlns="http://www.w3.org/2000/svg" xmlns:xlink="http://www.w3.org/1999/xlink" fill="none" version="1.1" width="512" height="512" viewBox="0 0 512 512"><g><g style="mix-blend-mode:passthrough"><rect x="0" y="0" width="512" height="512" rx="140" fill="#1BA565" fill-opacity="1"/></g><g style="mix-blend-mode:passthrough"><g><g style="mix-blend-mode:passthrough"><path d="M200,511.9999864501953L372,511.9999864501953C443.08299999999997,511.9999864501953,501.793,459.0239864501953,510.802,390.39998645019534L394.291,278.9660864501953C352.841,239.32308645019532,286.6113,242.5938164501953,249.2697,286.1277864501953L200,343.5677864501953L200,511.9999864501953L200,511.9999864501953Z" fill-rule="evenodd" fill="#47C88B" fill-opacity="1"/></g><g style="mix-blend-mode:passthrough"><path d="M0,272.5677864501953L0,371.9999864501953C0,449.3199864501953,62.6801,511.9999864501953,140,511.9999864501953L372,511.9999864501953C410.239,511.9999864501953,444.898,496.6689864501953,470.165,471.8179864501953L194.291,207.96608645019532C152.841,168.32308645019532,86.6113,171.5938164501953,49.2697,215.12778645019532L0,272.5677864501953Z" fill-rule="evenodd" fill="#50E19D" fill-opacity="1"/></g><g style="mix-blend-mode:passthrough"><ellipse cx="356" cy="118" rx="70" ry="70" fill="#FFFFFF" fill-opacity="1"/></g></g></g></g></svg>